<svg width="16" height="16" viewBox="0 0 16 16" fill="none" xmlns="http://www.w3.org/2000/svg">
<path fill-rule="evenodd" clip-rule="evenodd" d="M11.6667 4V8H3.66667V4C3.66667 1.79086 5.45753 0 7.66667 0C9.8758 0 11.6667 1.79086 11.6667 4ZM0.666667 11.6667C0.232806 11.1605 0.233059 11.1603 0.233321 11.1601L0.233892 11.1595L0.235197 11.1585L0.238462 11.1557L0.247615 11.148C0.254882 11.142 0.264483 11.1341 0.276417 11.1245C0.300283 11.1053 0.333487 11.0793 0.37604 11.0474C0.461133 10.9836 0.583667 10.8963 0.74366 10.7934C1.06363 10.5877 1.53374 10.3197 2.15405 10.0539C3.39634 9.52147 5.23537 9 7.66667 9C10.098 9 11.937 9.52147 13.1793 10.0539C13.7996 10.3197 14.2697 10.5877 14.5897 10.7934C14.7497 10.8963 14.8722 10.9836 14.9573 11.0474C14.9999 11.0793 15.0331 11.1053 15.0569 11.1245C15.0689 11.1341 15.0785 11.142 15.0857 11.148L15.0949 11.1557L15.0981 11.1585L15.0995 11.1595L15.1 11.1601C15.1003 11.1603 15.1005 11.1605 14.6667 11.6667L15.1005 11.1605L15.3333 11.3601V15.3333H0V11.3601L0.233321 11.1601L0.666667 11.6667Z" fill="white"/>
</svg>
